<?xml version="1.0" encoding="UTF-8"?>
<svg id="Layer_1" xmlns="http://www.w3.org/2000/svg" version="1.1" viewBox="0 0 266.6 301.4">
  <!-- Generator: Adobe Illustrator 29.0.1, SVG Export Plug-In . SVG Version: 2.1.0 Build 192)  -->
  <defs>
    <style>
      .st0 {
        fill: #254892;
      }
    </style>
  </defs>
  <path class="st0" d="M125.1,6.8c-1.3-.2-2.7-.3-4-.4s-4.2-.7-6-.8c-25.3-1.5-51.6,4.1-73.3,17.5-8.7,5.3-13.9,11.2-18.2,20.4s-6.8,16.9-9.6,24.8c-4.4,12.7-8.1,26.1-8.2,39.6.3.3,1.7-.8,2.1-1.1,17.5-12.3,33.3-32,42.5-51.2,1.7-3.6,3.4-9.3,5.5-12.3s4.8-.2,4.5,2.8c-5,17.1-10.1,34.1-15,51.2-1.7,5.9-3.7,12.2-5.2,18.2s-2,12,3.7,16.4c10.5,8.1,25.6,5.2,36.2-1.1s22.4-23.1,33-35,19.2-17,16-29.2-1.9-3.6-2-4.4c-.3-1.6,2.4-.6,3.1,0s.5.8.8,1.1.5,0,.7.4c.4.7,1.3,2.7,1.6,3.4.4,1.3.8,4,.9,5.4,1.2,16.8-3,34.4-.8,51.3l1.9,8.3c.6-.7.9-1.7,1.3-2.5,5.3-12.3,10.4-26.9,13.7-39.8s2.4-9.7,1.8-14.8c-1-8.5-1.9-15.9-.8-24.6s.7-2.4.8-3.4c.7-7.2-3.6-14.9-8.2-20.2s-8.6-7.7-11.2-11.7-1.8-4,.2-4c3,1.6,5.3,4.4,8.1,6.4,9.4,8.7,17.3,19.3,15.9,32.9s-1.5,5-1.7,7.2c-.7,7.7,4.5,14,8,20.5,6.3,11.7,12.8,24.9,20.2,35.8,16.8,24.4,49.6,40.9,51.6,73.6.6,9.9-2.9,15.2-5,24.3s-1.5,10.7-2.2,16c-1.6,12.1-3.2,24.1-4.6,36.1-.3,2.2-.2,4.6-.9,6.8,0,.4.6.3,1,.2,3.5-1,9-6.3,11.1-9.3,6.4-9.1,7.2-19.6,8.3-30.3,3.3-31.5,6.1-66.6-11.1-95-5-8.2-10.3-11.8-13-21.8-3.6-13.2-5.1-28.8-6.9-42.3-2.4-18.2-6.5-28.3,6.7-43.2s11.9-12.5,16.1-13.4,4.2-.4,4.3,1.4-1.9,4.8-2.3,6c-2.9,9.4-3.1,20.9-.4,30.4,2.9,10.3,9.3,19.1,13,29.1,2.6,7,4.5,15.1,6,22.4,9.2,43.7,15.2,87.9,9.3,132.4-3.2,24.7-15.9,39.5-38.2,49.7s-13.3,5.6-17.2,5.5-5.6-3.5-2.1-5.7l5.4-.5c23-3.7,43.4-23.3,46.9-46.5,4.1-27.7,1.8-59-1.7-86.6-2.5-19.5-5.5-41.1-10.3-60.2-3.1-12.4-8.3-19.8-13.3-30.9s-6.9-25.7-2.3-38c0-.4-.7-.2-1-.1-5.4,1.6-10.8,7.8-13.2,12.7-6.7,13.8-2.2,30,.2,44.3,2.1,13,3.7,33.7,11.3,44.3s4.8,5.9,6.9,9.2c16.1,26,13.9,63.2,12,92.5-.9,13.7-3.7,31.9-13.2,42.4-4.4,4.9-13.4,8.4-17.8,1.6-3.5-5.4,1.2-13.3,2.7-18.8,3.3-12.4,1.6-25.4,3.6-38,1.9-11.9,8-16.9,5.9-30.6-4.5-29.9-35.1-44.6-51.5-67.3s-11.4-19.2-16-29c-.6-1.3-1.7-3.5-2-4.8s.2-.7-.9-.6c0,.6,0,1.1-.2,1.7-5.6,17.6-11.9,35-17.4,52.6-.9,4.3-5.8,5.7-8.5,2.1s-2.7-8-3.2-11.2c-1.6-11.3-1.6-22.6-.4-34,1.2-11.4.2-4.2.9-6.1-.7-.2-.8.3-1.3.6-2,1.6-3.5,3.8-5.2,5.6-18.1,20.1-38.8,56.2-71.7,47.5s-10.8-4.8-15.2-9.2c0,4,0,8.1,0,12.1-.7,24.8-1,49.9-1.3,74.7-.2,15.9.8,32.8-1.3,48.4-1.2,8.9-5.1,18.6-1.5,27.4,3.6,8.8,1.2,1.9,1.5,2.9,1.3,1.5,6.3-5.4,6.9-6.5,3.6-7.1,3-14.6,3.3-22.2,1.1-30.9,1.4-62,2.2-92.9s0-8.1,0-12.1c3.5-.3,4.3,3,5.1,5.7,0,7.4,0,14.7,0,22.1s-.7,19.6-.9,29.2c-.3,18.7.3,37.5-1.2,56.1s-1.7,23.7-11.7,24.8-10.7-5.2-11.6-10.8,1.2-15.3,2.1-22.1c5.3-41.5.3-83.9,3-125.6.5-8.4,2-17.6,3.4-25.9,2.5-14.5,7.4-29.2,14-42.3-.8,0-1.3.5-1.7,1.1-8.2,9.4-16.9,18.1-25.5,27.2s-5.6,7.2-8.3,9.1c-4.6,3.5-10.7,1.3-12.3-4.2s.4-13,1.6-18.4c3.2-14.7,8.4-30.3,14.5-44,5.4-12.2,8.1-17.7,19.6-25,11.5-7.3,21.1-11.8,31.4-18.4,1-.5,1.9-1.2,3.1-.9,0,.9.8,1.5.9,2.3s-.8,1.7-.2,2.3c.3-.3.7-.5,1.1-.6C84.1.7,99.1-.9,111.4.5s10.7,1.4,13.4,4.9c2.7,3.5.5.8.4,1.5h-.1Z"/>
  <path class="st0" d="M77.6,177c1.3-.4,2.1-.7,3.2.4s.9,2.5,1.1,4c.9,6.8.5,13.9.8,20.8.6,12.7,1.8,25.5,3.4,38.2s1.6,8.7,1.3,13.2c-.3,4.5-1.7,7.7-2.1,11.5-.8,7,.3,14.3,2.2,21.1s1.7,6.5,2.7,7.9c1.5,2.3,4.2,2.8,5.9.4s1.7-5.3,1.9-6.6c2.4-13.2-1.5-25.9-2.1-39-1.4-29.6,1.8-59.2-.4-88.7-.3-3.3-1.3-6.7-.8-10.2s.8-1.8.8-2.8c2.2,1.4,3.5,4.2,4.1,6.7,2.6,9.9,2,23.6,1.4,33.9-.6,10.7,7.3,19.5,12.2,28.5,2.9,5.4,5.9,12.4,7.6,18.3s3.2,11.3,3.5,14.7.3,3.6-1.3,4.7c-3.3,2.2-4.3-3.3-5-5.6-2.7-9.7-4.1-19.4-8.9-28.4-1.6-3-3.1-5.9-4.7-8.9s-1.6-1.9-1.8-3.1c-.4,0-.8-.2-.8.2-.3,2.6,0,5.8,0,8.5-.2,5.6-.5,11.4-.9,17s0,3.7.6,5.7c2.6,6.8,10.9,19.7,16.8,24s3.9,1.9,5.5,2.6c4.8,2,11.3,4.5,16.4,5.3s1.3,0,1.9,0c.6,2.1-1.5,3.9-3.5,3.7-5.9-.6-17.4-5-22.8-7.8s-4.2-2.2-5.5-4.3-2.6-5.1-4.7-7.6-2.2-2.3-3.4-3.2c0,1.9-.2,3.9,0,5.7.3,3.8,1.8,8.1,2.1,11.9.5,6.2-.5,18.5-3,24.1s-6,7.1-10.3,6.7-3.4-1.7-4.5-3.5c-5.2-8.9-7.4-20-6.7-30.2s1.8-8.6,2.1-12.7c.7-9.1-2.1-18.2-2.9-27.2s0-15.2-.4-22.5-1.4-7.7-1.7-11.4,0-2.2,0-3.2c-1.1-.2-1.8.7-2.8.8-3.5.5-3.7-2-5.5,2.5s-1.2,13.2-1,19.7-.3,13.7.9,20.3,4.1,11.6,5,17.5.4,2.8.4,3.4-.4.9-.4,1.3c-.3,6.8-3.4,17.2-6.3,23.4s-3.9,6.6-3.9,7.6.8,1.9,1.1,2.3c1.3,1.9,3.3,2.4,5.5,2.1s4.4-1.7,5.1-1.7c2,0,2.7,2,1.5,3.6-3,4.2-13.4,1.8-16.8-1.1s0-9.4,1.7-13.6c2.9-7.1,6.7-17.6,6.1-25.2s-4.7-14.5-5.5-22.5-1.3-28.4,2.2-37.7c3.5-9.3,3.5-7.5,7.7-6.6s2.1,1.8,3.4,1.6c2.1-.4,1.7-2.5,2.4-4v-6.6h0Z"/>
  <path class="st0" d="M153.2,285.2c1.2,1.2,5.6.8,7.4.9s1.3.4,2.1.5c1.2,0,5.4.2,6.1-.5s1.2-3.4,1.6-4.2c.9-1.8,3.4-6.2,5.5-6,3.1.3.2,4.5-.1,5.8s-.2,5.8-1.1,6.9-4.8,1.8-6,2c-4.8.9-11.2.8-15.9-.4-7.6-2-5.5-5.5-5.8-12s-.5-1.5-.4-2.5c.3-3.3,2.6-5.7,3.3-8.6,1.3-5.1-.1-10.2-.8-15.2-2.6-20.5-5-40.9-.3-61.4,1.9-8.5,5.6-17.8,6.2-26.4.2-2.8-.6-5.7,1.1-8.3s4.1-3.3,6.8-3,9.7,4.9,11.7,7.4,3.5,8.3,6.3,11.5c-2.2,2.9-3.3-1.1-4.4-2.8-3.7-5.1-8.2-9.4-14-11.9-.7.2-1.2,2.9-1.4,3.7-2.7,10.7-5.4,23.4-7.3,34.3-3.1,18.3-1.3,36.9,1.3,55.1.7,5.2,2.9,11.7,1.2,16.9s-3.4,5.6-3.7,8.2.3,3.1.4,4.6-.3,4.4.5,5.3h-.3Z"/>
  <path class="st0" d="M79.4,111.3c-.2.2-.3.8-.7,1.2-3.3,3.6-6.4,5.8-9.4,9.7s-3,2.4-5.1.9-6.3-9.7-6.6-12.1,0-3,.5-3.5,2.3-1.2,2.9-1.6c.8-.6,1.3-1.4,2.3-2,5-3.1,13.3-1.4,18.1,1.6s1.1,1.9.8,2.9-1.4,2-1.6,2.2c-.4.4-1,.5-1.2.7h0Z"/>
  <path class="st0" d="M64.7,63.8c.7,0,1.2-.2,1.9,0,.9.5,3.5,3.5,3.4,4.7-.2,2.4-3.2,3.2-4.8,4.1s-.8.9-1.1,1c-1.6.8-4.1-1.7-4.3-3.4,1.3-1.6,3-6.1,5-6.5h-.1Z"/>
  <path class="st0" d="M111.9,78.5c-.2.2-2.3,1.3-2.7,1.3-6,.9-5.5-8-.4-8.5s3.7,1.8,3.6,3.2-.4.9-.4,1.3,0,2.5,0,2.7h0Z"/>
</svg>