<?xml version="1.0" encoding="UTF-8"?>
<svg id="Layer_1" xmlns="http://www.w3.org/2000/svg" version="1.1" viewBox="0 0 334.2 477.8">
  <!-- Generator: Adobe Illustrator 29.1.0, SVG Export Plug-In . SVG Version: 2.1.0 Build 142)  -->
  <defs>
    <style>
      .st0 {
        fill: #231f20;
      }
    </style>
  </defs>
  <path class="st0" d="M285.5,390l48.8-33.6-91.8-129.9,53.2-22.8L206.1,0,0,88.5l75.2,171v130.5h59.5v-117.3l52.1-22.4,98.7,139.6h0ZM137.8,219.9l-60.9-82.7,83.7-60.2,60.9,82.7-17.3,12.5-43.6-61.7-48.8,33.6,44.2,62.6-18.3,13.1h0Z"/>
  <g>
    <path class="st0" d="M106.2,434.3c0-.4-.2-1.3-.2-3.3v-2.5c0-2.8-.4-4.9-1.2-6.3-.6-1-1.4-1.8-2.4-2.5,1.4-.8,2.5-1.9,3.2-3.3,1-1.8,1.5-3.8,1.5-5.7s-.3-3-.8-4.3c-.5-1.2-1.2-2.4-2-3.4-1-1.3-2.3-2.2-3.9-2.9h0c-1.5-.6-3.6-1-6.3-1h-18.9v39.4h9.4v-14.8h6.8c2.4,0,3.4.5,3.9.9.4.4,1,1.5,1,4.2v3.5c0,1.2.2,2.3.4,3.4.1.5.3,1.2.5,2.1l.2.6h10.2v-2.3l-.4-.3c-.6-.3-.9-.9-1.1-1.6ZM84.7,407.3h7.8c1.5,0,2.5.2,3.2.6,1.1.6,1.7,1.9,1.7,3.8s-.6,2.9-1.7,3.5c-.7.3-1.9.5-3.4.5h-7.6v-8.4Z"/>
    <path class="st0" d="M123.9,399l-14.1,39.4h10.1l2.6-7.7h12.6l2.5,7.7h10.4l-14-39.4h-10.1ZM132.5,422.5h-7.2l3.7-11.1,3.6,11.1Z"/>
    <path class="st0" d="M180.8,405c-1.7-2.5-4.1-4.2-6.9-5.1-1.6-.5-3.7-.8-6.1-.9h-17.1v39.4h17.1c6,0,10.5-2.5,13.4-7.5,2.1-3.6,3.1-8,3.1-13.2s-.2-4.2-.7-6.4c-.5-2.3-1.5-4.4-2.8-6.4ZM160.1,407.3h6.4c3.2,0,5.4.9,6.4,2.6,1.1,1.9,1.7,4.7,1.7,8.4s-.4,5-1.1,6.9c-1.3,3.3-3.6,4.9-7,4.9h-6.4v-22.9Z"/>
    <path class="st0" d="M199.6,399l-14.1,39.4h10.1l2.6-7.7h12.6l2.5,7.7h10.4l-14-39.4h-10.1ZM208.1,422.5h-7.3l3.7-11.1,3.6,11.1Z"/>
    <path class="st0" d="M258.6,435.9c-.6-.3-.9-.9-1.1-1.6,0-.4-.2-1.3-.2-3.3v-2.5c0-2.8-.4-4.9-1.2-6.3-.6-1-1.4-1.8-2.4-2.5,1.4-.8,2.5-1.9,3.2-3.3,1-1.8,1.5-3.8,1.5-5.7s-.3-3-.8-4.3c-.5-1.2-1.2-2.4-2-3.4-1-1.3-2.3-2.2-3.9-2.9h0c-1.5-.6-3.6-1-6.3-1h-18.9v39.4h9.4v-14.8h6.8c2.4,0,3.4.5,3.9.9.4.4,1,1.5,1,4.2v3.5c0,1.2.2,2.3.4,3.4.1.5.3,1.2.5,2.1l.2.6h10.2v-2.3l-.4-.3ZM236,407.3h7.8c1.5,0,2.5.2,3.2.6,1.1.6,1.7,1.9,1.7,3.8s-.6,2.9-1.7,3.5c-.7.3-1.9.5-3.4.5h-7.6v-8.4Z"/>
  </g>
</svg>