<?xml version="1.0" encoding="UTF-8"?>
<svg id="Layer_1" xmlns="http://www.w3.org/2000/svg" xmlns:serif="http://www.serif.com/" version="1.1" viewBox="0 0 595.3 595.3">
  <!-- Generator: Adobe Illustrator 29.1.0, SVG Export Plug-In . SVG Version: 2.1.0 Build 142)  -->
  <defs>
    <style>
      .st0 {
        fill: #fff;
        fill-rule: evenodd;
      }
    </style>
  </defs>
  <path class="st0" d="M383.6,380.8c-3.7,5.6-10.3,7.5-15.9,3.7-43.9-27.1-99.1-32.7-164.5-17.8-6.5,1.9-12.1-2.8-14-8.4-1.9-6.5,2.8-12.2,8.4-14,71-15.9,132.8-9.3,181.4,20.6,6.5,2.8,7.5,10.3,4.7,15.9Z"/>
  <path class="st0" d="M406.1,329.4c-4.7,6.5-13.1,9.3-19.6,4.7-50.5-30.9-127.1-40.2-186-21.5-7.5,1.9-15.9-1.9-17.8-9.4-1.9-7.5,1.9-15.9,9.3-17.8,68.2-20.6,152.4-10.3,210.3,25.2,5.6,2.8,8.4,12.2,3.7,18.7Z"/>
  <path class="st0" d="M432.3,272.4c-4.7,6.5-15.9,9.3-24.3,4.7-59.8-35.5-159.9-39.3-216.9-21.5-9.4,2.8-18.7-2.8-21.5-11.2-2.8-9.4,2.8-18.7,11.2-21.5,66.4-19.6,175.7-15.9,244.9,25.2,8.4,4.7,11.2,15.9,6.5,24.3Z"/>
  <path class="st0" d="M522.6,0H72.7C32.6,0,0,32.6,0,72.7v449.8C0,562.7,32.6,595.3,72.7,595.3h449.8c40.1,0,72.7-32.6,72.7-72.7V72.7C595.3,32.6,562.7,0,522.6,0ZM297.6,484.6c-102.8,0-187-84.1-187-187s84.1-187,187-187,187,84.1,187,187-84.1,187-187,187Z"/>
</svg>