<?xml version="1.0" encoding="UTF-8"?>
<svg id="Layer_1" xmlns="http://www.w3.org/2000/svg" xmlns:serif="http://www.serif.com/" version="1.1" viewBox="0 0 595.3 595.3">
  <!-- Generator: Adobe Illustrator 29.1.0, SVG Export Plug-In . SVG Version: 2.1.0 Build 142)  -->
  <defs>
    <style>
      .st0 {
        fill: #fff;
        fill-rule: evenodd;
      }
    </style>
  </defs>
  <path class="st0" d="M522.5,0C562.7,0,595.3,32.6,595.3,72.7v449.8c0,40.1-32.6,72.7-72.7,72.7H72.7c-40.1,0-72.7-32.6-72.7-72.7V72.7C0,32.6,32.6,0,72.7,0h449.8ZM498.2,204.2c-4.8-18-19-32.2-37-37-32.6-8.7-163.5-8.7-163.5-8.7,0,0-130.9,0-163.5,8.7-18,4.8-32.2,19-37,37-8.7,32.6-8.7,100.7-8.7,100.7,0,0,0,68.1,8.7,100.7,4.8,18,19,32.2,37,37,32.6,8.7,163.5,8.7,163.5,8.7,0,0,130.9,0,163.5-8.7,18-4.8,32.2-19,37-37,8.7-32.6,8.7-100.7,8.7-100.7,0,0,0-68.1-8.7-100.7ZM255.8,367.7v-125.6l108.7,62.8-108.7,62.8h0Z"/>
</svg>